# xmcd
#
# Track frame offsets:
#	150
#	22293
#	40368
#	59054
#	72729
#	96184
#	113541
#	138151
#	151280
#	165273
#	179862
#	200678
#	217103
#
# Disc length: 3134 seconds
#
# Revision: 1
# Processed by: cddbd v1.5.2PL0 Copyright (c) Steve Scherf et al.
# Submitted via: CDmax 2.0
#
DISCID=ca0c3c0d
DTITLE=Various Artist - Wild About That Thang: Ladies Sing the Blues
DYEAR=2003
DGENRE=Blues
TTITLE0=Big Time Sarah - Long Tall Daddy
TTITLE1=Katherine Davis - Wild About That Thang
TTITLE2=Karen Carroll - Confessin' the Blues
TTITLE3=Blu Lu Barker - Don't You Feel My Leg
TTITLE4=Bonnie Lee - Got the Blues 'Bout My Baby
TTITLE5=Edith Wilson - He May Be Your Man
TTITLE6=Grana Louise - You've Been a Good Ole Wagon
TTITLE7=Dinah Washington - Rich Man's Blues
TTITLE8=Shirley Johnson - Not for the Love of You
TTITLE9=Betty Roche - I Love My Lovin' Lover
TTITLE10=Zora Young - Brain Damage
TTITLE11=Mary Johnson - Never Too Late
TTITLE12=Mary Johnson - Show Me the Way
EXTD=LABEL =Delmark Records\nID =dx-913\nUPC =038153-0913-23\nCOPYRIGH
EXTD=T =2003
EXTT0=
EXTT1=
EXTT2=
EXTT3=
EXTT4=
EXTT5=
EXTT6=
EXTT7=
EXTT8=
EXTT9=
EXTT10=
EXTT11=
EXTT12=
PLAYORDER=
